<svg xmlns="http://www.w3.org/2000/svg" viewBox="0 0 305.1 305.07">
	<defs>
		<style>
			.cls-1{font-size:21.6px;font-family:CormorantGaramond-Bold, Cormorant Garamond;font-weight:700;}
		</style>
	</defs>
	<g id="Layer_2" data-name="Layer 2">
		<g id="Layer_1-2" data-name="Layer 1">
			<text class="cls-1" transform="matrix(0.99, -0.14, 0.14, 0.99, 125.86, 19.97)">
				C
			</text>
			<text class="cls-1" transform="matrix(1, -0.03, 0.03, 1, 140.03, 17.86)">
				H
			</text>
			<text class="cls-1" transform="translate(156.14 17.37) rotate(4.74)">
				A
			</text>
			<text class="cls-1" transform="translate(171.14 18.57) rotate(11.21)">
				N
			</text>
			<text class="cls-1" transform="translate(186.34 21.56) rotate(17.8)">
				G
			</text>
			<text class="cls-1" transform="translate(201 26.35) rotate(23.56)">
				E
			</text>
			<text class="cls-1" transform="translate(211.69 31.12) rotate(27.09)">
			</text>
			<text class="cls-1" transform="translate(216.05 33.18) rotate(31.01)">
				T
			</text>
			<text class="cls-1" transform="translate(227.69 40.06) rotate(37.28)">
				H
			</text>
			<text class="cls-1" transform="translate(240.48 49.92) rotate(43.13)">
				E
			</text>
			<text class="cls-1" transform="translate(248.95 58) rotate(46.62)">
			</text>
			<text class="cls-1" transform="translate(252.38 61.37) rotate(50.68)">
				C
			</text>
			<text class="cls-1" transform="matrix(0.54, 0.84, -0.84, 0.54, 261.51, 72.4)">
				O
			</text>
			<text class="cls-1" transform="translate(270.21 86.04) rotate(62.98)">
				L
			</text>
			<text class="cls-1" transform="matrix(0.36, 0.93, -0.93, 0.36, 275.53, 96.16)">
				O
			</text>
			<text class="cls-1" transform="translate(281.33 111.23) rotate(75.45)">
				R
			</text>
			<text class="cls-1" transform="translate(284.89 125.61) rotate(79.64)">
			</text>
			<text class="cls-1" transform="translate(285.77 130.45) rotate(81.73)">
			</text>
			<text class="cls-1" transform="matrix(0.11, 0.99, -0.99, 0.11, 286.48, 135.32)">
			</text>
			<text class="cls-1" transform="translate(287.02 140.22) rotate(85.9)">
			</text>
			<text class="cls-1" transform="translate(287.37 145.12) rotate(87.96)">
			</text>
			<text class="cls-1" transform="matrix(-0.02, 1, -1, -0.02, 287.59, 150.01)">
			</text>
			<text class="cls-1" transform="translate(287.55 154.96) rotate(92.06)">
			</text>
			<text class="cls-1" transform="translate(287.37 159.9) rotate(94.14)">
			</text>
			<text class="cls-1" transform="matrix(-0.11, 0.99, -0.99, -0.11, 287.02, 164.81)">
			</text>
			<text class="cls-1" transform="matrix(-0.14, 0.99, -0.99, -0.14, 286.49, 169.71)">
			</text>
			<text class="cls-1" transform="translate(286.01 174.49) rotate(102.65)">
				N
			</text>
			<text class="cls-1" transform="matrix(-0.33, 0.94, -0.94, -0.33, 282.66, 189.6)">
				O
			</text>
			<text class="cls-1" transform="matrix(-0.4, 0.91, -0.91, -0.4, 277.06, 204.85)">
			</text>
			<text class="cls-1" transform="matrix(-0.46, 0.89, -0.89, -0.46, 275.2, 209.33)">
				P
			</text>
			<text class="cls-1" transform="translate(269.95 219.66) rotate(123.01)">
				R
			</text>
			<text class="cls-1" transform="translate(261.87 231.98) rotate(128.57)">
				E
			</text>
			<text class="cls-1" transform="translate(254.61 241.08) rotate(133.31)">
				S
			</text>
			<text class="cls-1" transform="translate(247.18 248.98) rotate(137.88)">
				S
			</text>
			<text class="cls-1" transform="translate(239.25 256.3) rotate(143.29)">
				U
			</text>
			<text class="cls-1" transform="matrix(-0.86, 0.51, -0.51, -0.86, 227.39, 265.17)">
				R
			</text>
			<text class="cls-1" transform="translate(214.66 272.58) rotate(155.14)">
				E
			</text>
			<text class="cls-1" transform="translate(204 277.42) rotate(158.67)">
			</text>
			<text class="cls-1" transform="translate(199.41 279.21) rotate(160.77)">
			</text>
			<text class="cls-1" transform="matrix(-0.96, 0.29, -0.29, -0.96, 194.76, 280.83)">
			</text>
			<text class="cls-1" transform="translate(190.06 282.28) rotate(164.98)">
			</text>
			<text class="cls-1" transform="translate(185.3 283.56) rotate(167.09)">
			</text>
			<text class="cls-1" transform="matrix(-0.98, 0.19, -0.19, -0.98, 180.51, 284.66)">
			</text>
			<text class="cls-1" transform="translate(175.66 285.59) rotate(171.29)">
			</text>
			<text class="cls-1" transform="translate(170.8 286.34) rotate(173.38)">
			</text>
			<text class="cls-1" transform="translate(165.91 286.91) rotate(175.46)">
			</text>
			<text class="cls-1" transform="matrix(-1, 0.04, -0.04, -1, 160.99, 287.3)">
			</text>
			<text class="cls-1" transform="matrix(-1, -0.03, 0.03, -1, 156.2, 287.69)">
				C
			</text>
			<text class="cls-1" transform="matrix(-0.99, -0.12, 0.12, -0.99, 141.83, 287.25)">
				L
			</text>
			<text class="cls-1" transform="matrix(-0.98, -0.19, 0.19, -0.98, 130.41, 285.79)">
				I
			</text>
			<text class="cls-1" transform="translate(123.4 284.59) rotate(-164.47)">
				C
			</text>
			<text class="cls-1" transform="matrix(-0.93, -0.37, 0.37, -0.93, 109.58, 280.75)">
				K
			</text>
			<text class="cls-1" transform="translate(96.72 275.51) rotate(-154.47)">
			</text>
			<text class="cls-1" transform="translate(92.28 273.62) rotate(-150.21)">
				A
			</text>
			<text class="cls-1" transform="translate(79.19 266.14) rotate(-143.91)">
				R
			</text>
			<text class="cls-1" transform="translate(68.06 258.16) rotate(-137.82)">
				O
			</text>
			<text class="cls-1" transform="matrix(-0.66, -0.75, 0.75, -0.66, 56.09, 247.3)">
				U
			</text>
			<text class="cls-1" transform="translate(46.29 236.2) rotate(-124.9)">
				N
			</text>
			<text class="cls-1" transform="translate(37.44 223.51) rotate(-118.48)">
				D
			</text>
			<text class="cls-1" transform="translate(30.45 210.26) rotate(-114.26)">
			</text>
			<text class="cls-1" transform="translate(28.43 205.79) rotate(-112.17)">
			</text>
			<text class="cls-1" transform="matrix(-0.34, -0.94, 0.94, -0.34, 26.57, 201.23)">
			</text>
			<text class="cls-1" transform="translate(24.88 196.62) rotate(-107.97)">
			</text>
			<text class="cls-1" transform="translate(23.36 191.93) rotate(-105.86)">
			</text>
			<text class="cls-1" transform="matrix(-0.24, -0.97, 0.97, -0.24, 22.01, 187.19)">
			</text>
			<text class="cls-1" transform="translate(20.84 182.4) rotate(-101.64)">
			</text>
			<text class="cls-1" transform="translate(19.84 177.58) rotate(-99.54)">
			</text>
			<text class="cls-1" transform="translate(19.02 172.74) rotate(-97.46)">
			</text>
			<text class="cls-1" transform="translate(18.38 167.85) rotate(-95.37)">
			</text>
			<text class="cls-1" transform="translate(17.72 163.09) rotate(-91.09)">
				N
			</text>
			<text class="cls-1" transform="translate(17.38 147.61) rotate(-84.47)">
				O
			</text>
			<text class="cls-1" transform="translate(19.16 131.44) rotate(-80.01)">
			</text>
			<text class="cls-1" transform="matrix(0.23, -0.97, 0.97, 0.23, 19.89, 126.66)">
				P
			</text>
			<text class="cls-1" transform="matrix(0.33, -0.94, 0.94, 0.33, 22.51, 115.36)">
				R
			</text>
			<text class="cls-1" transform="translate(27.4 101.46) rotate(-65.23)">
				E
			</text>
			<text class="cls-1" transform="translate(32.27 90.91) rotate(-60.46)">
				S
			</text>
			<text class="cls-1" transform="matrix(0.56, -0.83, 0.83, 0.56, 37.61, 81.47)">
				S
			</text>
			<text class="cls-1" transform="translate(43.57 72.48) rotate(-50.45)">
				U
			</text>
			<text class="cls-1" transform="translate(53 61.04) rotate(-44.22)">
				R
			</text>
			<text class="cls-1" transform="translate(63.59 50.81) rotate(-38.68)">
				E
			</text>
			<text class="cls-1" transform="translate(72.79 43.58) rotate(-35.18)">
			</text>
			<text class="cls-1" transform="matrix(0.84, -0.55, 0.55, 0.84, 76.81, 40.74)">
			</text>
			<text class="cls-1" transform="matrix(0.86, -0.52, 0.52, 0.86, 80.95, 38.04)">
			</text>
			<text class="cls-1" transform="translate(85.16 35.51) rotate(-28.91)">
			</text>
			<text class="cls-1" transform="matrix(0.89, -0.45, 0.45, 0.89, 89.47, 33.12)">
			</text>
			<text class="cls-1" transform="matrix(0.91, -0.42, 0.42, 0.91, 93.86, 30.9)">
			</text>
			<text class="cls-1" transform="translate(98.33 28.84) rotate(-22.62)">
			</text>
			<text class="cls-1" transform="matrix(0.94, -0.35, 0.35, 0.94, 102.89, 26.94)">
			</text>
			<text class="cls-1" transform="matrix(0.95, -0.32, 0.32, 0.95, 107.49, 25.22)">
			</text>
			<text class="cls-1" transform="translate(112.17 23.66) rotate(-16.3)">
			</text>
			<text class="cls-1" transform="translate(116.89 22.27) rotate(-14.19)">
			</text>
			<text class="cls-1" transform="translate(121.66 21.06) rotate(-12.09)">
			</text>
			<text class="cls-1" transform="translate(126.47 20.03) rotate(-9.99)">
			</text>
			<text class="cls-1" transform="translate(131.32 19.17) rotate(-7.9)">
			</text>
			<text class="cls-1" transform="matrix(0.99, -0.1, 0.1, 0.99, 136.2, 18.49)">
			</text>
			<text class="cls-1" transform="translate(141.09 18) rotate(-3.74)">
			</text>
			<text class="cls-1" transform="translate(145.99 17.67) rotate(-1.68)">
			</text>
		</g>
	</g>
</svg>
